<svg id="wow" viewBox="0 0 1024 1024" xmlns="http://www.w3.org/2000/svg"><path d="M713.386667 826.026667c-17.066667-17.066667-34.133333-44.373333-34.133334-54.613334 3.413333-23.893333 116.053333-457.386667 126.293334-488.106666 6.826667-17.066667 30.72-40.96 40.96-47.786667 6.826667-3.413333 6.826667-13.653333 6.826666-20.48-3.413333-6.826667-10.24-10.24-17.066666-10.24h-170.666667c-6.826667 0-10.24 3.413333-13.653333 10.24-3.413333 6.826667-3.413333 13.653333 0 17.066667 3.413333 6.826667 17.066667 30.72 17.066666 44.373333 0 17.066667-37.546667 163.84-68.266666 283.306667l-68.266667-307.2c-6.826667-6.826667-13.653333-13.653333-20.48-13.653334s-13.653333 6.826667-17.066667 13.653334l-68.266666 307.2c-30.72-122.88-68.266667-269.653333-68.266667-283.306667 0-13.653333 10.24-37.546667 17.066667-44.373333 3.413333-6.826667 3.413333-10.24 0-17.066667-6.826667-6.826667-10.24-10.24-17.066667-10.24h-170.666667c-6.826667 0-13.653333 3.413333-17.066666 10.24 0 6.826667 0 17.066667 6.826666 20.48 6.826667 6.826667 30.72 27.306667 37.546667 47.786667 13.653333 30.72 126.293333 460.8 126.293333 484.693333 0 10.24-17.066667 37.546667-30.72 58.026667-3.413333 6.826667-3.413333 13.653333 0 17.066666s6.826667 10.24 13.653334 10.24h136.533333c10.24 0 17.066667-6.826667 17.066667-17.066666 0-23.893333 3.413333-68.266667 6.826666-81.92 3.413333-13.653333 17.066667-71.68 27.306667-119.466667 13.653333 47.786667 30.72 109.226667 34.133333 122.88 3.413333 13.653333 3.413333 54.613333 0 78.506667 0 3.413333 0 10.24 3.413334 13.653333 3.413333 3.413333 6.826667 6.826667 13.653333 6.826667h136.533333c6.826667 0 13.653333-3.413333 17.066667-10.24 0-10.24 0-17.066667-3.413333-20.48z" fill="" /><path d="M1024 512c0-92.16-23.893333-180.906667-68.266667-256v-170.666667c0-10.24-6.826667-17.066667-17.066666-17.066666h-170.666667C692.906667 23.893333 607.573333 0 512 0S331.093333 23.893333 256 68.266667h-170.666667c-10.24 0-17.066667 6.826667-17.066666 17.066666v170.666667C23.893333 331.093333 0 419.84 0 512s23.893333 180.906667 68.266667 256v170.666667c0 10.24 6.826667 17.066667 17.066666 17.066666h170.666667c75.093333 44.373333 160.426667 68.266667 256 68.266667s180.906667-23.893333 256-68.266667h170.666667c10.24 0 17.066667-6.826667 17.066666-17.066666v-170.666667c44.373333-75.093333 68.266667-163.84 68.266667-256zM266.24 921.6c-17.066667-10.24-30.72-20.48-44.373333-30.72l-3.413334-3.413333c-30.72-23.893333-58.026667-51.2-81.92-81.92l-3.413333-3.413334c-10.24-17.066667-20.48-30.72-30.72-44.373333-44.373333-71.68-68.266667-153.6-68.266667-245.76s23.893333-174.08 68.266667-245.76c10.24-13.653333 20.48-27.306667 30.72-44.373333l3.413333-3.413334c23.893333-30.72 51.2-58.026667 81.92-81.92l3.413334-3.413333c17.066667-10.24 30.72-20.48 44.373333-30.72 71.68-44.373333 153.6-68.266667 245.76-68.266667s174.08 23.893333 245.76 68.266667c17.066667 10.24 30.72 20.48 44.373333 30.72l3.413334 3.413333c30.72 23.893333 58.026667 51.2 81.92 81.92l3.413333 3.413334c10.24 17.066667 20.48 30.72 30.72 44.373333 44.373333 71.68 68.266667 153.6 68.266667 245.76s-23.893333 174.08-68.266667 245.76c-10.24 17.066667-20.48 30.72-30.72 44.373333l-3.413333 3.413334c-23.893333 30.72-51.2 58.026667-81.92 81.92l-3.413334 3.413333c-13.653333 10.24-30.72 20.48-44.373333 30.72-71.68 44.373333-153.6 68.266667-245.76 68.266667s-174.08-23.893333-245.76-68.266667z"/></svg>